<?xml version="1.0" standalone="no"?>
<!DOCTYPE svg PUBLIC "-//W3C//DTD SVG 20010904//EN"
 "http://www.w3.org/TR/2001/REC-SVG-20010904/DTD/svg10.dtd">
<svg version="1.0" xmlns="http://www.w3.org/2000/svg"
 width="280.000000pt" height="280.000000pt" viewBox="0 0 280.000000 280.000000"
 preserveAspectRatio="xMidYMid meet">
<metadata>
Created by potrace 1.14, written by Peter Selinger 2001-2017
</metadata>
<g transform="translate(0.000000,280.000000) scale(0.100000,-0.100000)"
fill="#000000" stroke="none">
<path d="M1067 2464 c-3 -4 3 -14 15 -24 21 -17 21 -17 -12 -12 -23 3 -31 1
-26 -7 4 -6 14 -11 23 -11 9 0 13 -6 9 -15 -3 -8 -1 -15 5 -15 6 0 8 -4 4 -9
-3 -5 0 -13 6 -17 8 -4 7 -9 -2 -15 -11 -7 -11 -9 1 -9 12 0 13 -2 1 -9 -8 -5
-10 -14 -5 -22 4 -7 9 -27 10 -44 1 -16 2 -30 3 -30 2 0 4 -10 5 -22 2 -13 -1
-23 -6 -23 -4 0 -7 -6 -5 -12 1 -7 -4 -12 -10 -10 -7 1 -13 -3 -13 -9 0 -5 -4
-8 -9 -5 -5 3 -12 -1 -15 -10 -4 -10 -2 -13 7 -8 8 5 8 2 -2 -9 -7 -9 -18 -14
-24 -10 -6 4 -8 0 -5 -8 6 -16 -16 -41 -28 -31 -5 4 -3 0 4 -10 10 -12 10 -18
1 -24 -8 -4 -9 -3 -5 4 4 7 2 12 -3 12 -6 0 -11 -5 -11 -11 0 -5 -6 -7 -12 -3
-9 5 -8 2 1 -9 8 -10 11 -20 7 -24 -3 -3 -6 -1 -6 5 0 7 -4 12 -9 12 -4 0 -8
-8 -8 -17 0 -43 -3 -44 -35 -20 -43 32 -87 45 -173 51 -38 2 -81 8 -95 12 -23
7 -24 6 -10 -11 13 -17 13 -18 0 -10 -13 7 -13 6 -2 -7 7 -9 14 -31 16 -50 2
-19 6 -43 10 -54 5 -17 1 -20 -26 -22 -17 -2 -36 -6 -42 -11 -12 -9 -112 -29
-185 -37 -48 -5 -92 -23 -58 -24 12 0 17 -8 17 -27 0 -14 3 -23 6 -20 7 7 43
-29 45 -45 3 -18 5 -24 18 -48 19 -34 37 -50 46 -42 4 4 6 3 5 -3 -1 -5 -2
-15 -1 -22 1 -14 101 -78 117 -75 6 1 17 -5 24 -13 9 -10 9 -15 1 -15 -17 0
-4 -58 20 -92 11 -15 25 -25 31 -22 6 4 8 2 4 -4 -3 -6 -2 -13 3 -16 5 -4 12
-2 16 4 3 5 11 10 16 10 6 0 7 -4 4 -10 -5 -9 24 -15 48 -11 5 1 6 -3 3 -8 -4
-5 1 -11 9 -13 12 -2 8 -14 -19 -54 -29 -43 -40 -68 -62 -149 -2 -5 -6 -23 -9
-39 -3 -16 -8 -33 -11 -37 -2 -4 0 -10 6 -14 5 -3 8 -16 4 -29 -3 -12 -7 -31
-9 -42 -2 -10 -4 -19 -5 -19 -1 0 -4 -12 -5 -27 -2 -14 -11 -47 -19 -73 -19
-55 -12 -75 15 -46 26 28 31 26 19 -5 -14 -37 -13 -38 16 -9 14 14 29 23 34
20 5 -3 11 -1 14 4 4 5 18 8 32 5 19 -3 24 -1 18 8 -6 11 -5 11 8 0 17 -14 39
-13 50 3 5 6 8 5 8 -3 0 -10 5 -10 20 -2 11 6 20 8 20 4 0 -3 6 -2 13 3 6 5
19 9 27 8 18 -1 40 17 33 27 -2 4 3 5 11 2 8 -3 23 3 33 13 11 11 27 23 37 26
9 4 14 11 11 17 -3 5 -1 10 5 10 6 0 9 4 6 9 -6 9 20 8 44 -1 32 -13 80 -17
80 -7 0 6 4 8 9 5 14 -9 42 5 34 17 -4 6 0 8 11 4 10 -4 15 -3 11 3 -3 6 -1
10 5 10 6 0 8 5 5 10 -3 6 -1 10 5 10 6 0 8 4 5 10 -3 6 1 7 9 4 8 -3 18 -15
22 -27 9 -28 73 -96 109 -115 53 -28 106 -46 170 -57 45 -8 79 -16 89 -23 6
-3 18 -8 27 -9 8 -1 35 -11 59 -22 48 -21 60 -20 41 3 -9 11 -9 16 0 22 7 4 9
3 6 -3 -3 -5 0 -10 8 -10 13 0 13 3 2 16 -24 28 -36 85 -21 99 10 9 11 19 4
36 -10 27 -3 41 14 27 6 -5 20 -11 31 -13 11 -1 23 -7 26 -12 6 -8 105 -11
139 -4 8 2 37 16 64 31 27 15 51 27 53 27 3 0 25 20 49 44 24 24 73 64 110 88
56 36 64 44 45 46 -21 3 -22 4 -4 17 16 12 15 13 -14 9 -20 -3 -33 -1 -33 5 0
6 -4 11 -10 11 -5 0 -21 11 -36 24 -49 44 -64 56 -64 51 0 -3 -11 2 -24 11
-14 8 -27 15 -30 15 -24 -4 -46 1 -46 9 0 6 6 10 13 10 8 0 27 11 43 25 16 14
32 25 35 25 12 0 69 58 69 69 0 6 4 11 8 11 9 0 57 101 53 114 -1 4 2 13 7 20
11 15 14 217 3 230 -5 6 -8 74 -8 150 2 104 -1 140 -10 143 -8 3 -13 -4 -13
-16 0 -11 -4 -22 -9 -26 -6 -3 -8 8 -6 25 2 16 -1 33 -7 36 -6 4 -8 3 -4 -4 8
-13 -42 -74 -55 -66 -5 3 -9 0 -9 -7 0 -6 -8 -9 -20 -6 -10 3 -21 0 -24 -7 -3
-8 -5 -7 -5 1 -1 7 -8 10 -16 7 -8 -4 -12 -11 -8 -17 3 -6 1 -7 -6 -3 -6 4
-19 2 -28 -6 -14 -11 -16 -11 -8 2 6 11 3 10 -12 -3 -11 -9 -23 -14 -26 -10
-4 3 -7 1 -7 -6 0 -8 -7 -11 -15 -7 -8 3 -15 0 -15 -6 0 -6 -3 -9 -6 -6 -3 3
-18 -6 -33 -20 -15 -15 -38 -35 -51 -45 -14 -10 -18 -15 -10 -11 13 7 13 6 1
-9 -11 -14 -17 -15 -30 -5 -14 12 -14 11 -2 -5 8 -9 11 -21 7 -24 -14 -15 -26
23 -20 62 14 81 8 148 -20 210 -15 32 -30 62 -34 65 -9 6 -54 98 -72 147 -7
18 -16 30 -21 27 -5 -3 -6 -11 -2 -17 5 -8 2 -8 -9 1 -13 11 -16 8 -22 -19 -4
-19 -13 -33 -26 -36 -11 -3 -20 -9 -20 -14 0 -5 -7 -9 -15 -9 -8 0 -15 -7 -15
-15 0 -23 -11 -18 -59 26 -37 34 -66 52 -101 64 -3 1 -18 7 -35 14 -38 16 -64
23 -90 24 -26 0 -148 31 -204 51 -50 19 -46 18 -54 10z"/>
<path d="M345 1790 c3 -5 8 -10 11 -10 2 0 4 5 4 10 0 6 -5 10 -11 10 -5 0 -7
-4 -4 -10z"/>
</g>
</svg>
